<svg width="318" height="98" viewBox="0 0 318 98" fill="none" xmlns="http://www.w3.org/2000/svg">
<path d="M40.5 97C20.5 97 0 52.9999 0 52.9999C14.5 61.5 27 73 46 63.0001C65 53.0001 72.5 20.9999 84 11.0001C92.4368 3.66382 106.5 7.99996 103 20.9999C99.5 33.9998 60.5 97 40.5 97Z" fill="#35BA96"/>
<circle cx="31.5" cy="13.5" r="11.5" fill="#F26922"/>
<path fill-rule="evenodd" clip-rule="evenodd" d="M10.936 41.5083C10.936 37.6605 12.0066 33.9702 13.9122 31.2494C15.8178 28.5285 18.4024 27 21.0973 27H22.0186C22.5244 27.0026 23.0158 27.1135 23.4927 27.3327L25.8393 28.4276C29.8009 30.2742 34.0712 30.2742 38.0328 28.4276L40.3794 27.3327C40.8536 27.1122 41.3522 27 41.8507 27H42.7747C45.4697 27 48.0542 28.5285 49.9599 31.2494C51.8655 33.9702 52.936 37.6605 52.936 41.5083V46.1045C52.936 49.0217 51.4565 51.5055 49.4405 51.9736C37.8476 54.6755 26.0245 54.6755 14.4315 51.9736C13.4565 51.7446 12.5701 51.029 11.93 49.9543C11.2899 48.8795 10.9377 47.5153 10.936 46.1045V41.5083Z" fill="#F26922"/>
<path d="M52.936 46.5C52.936 52.8513 43.534 60 31.936 60C20.3381 60 10.936 52.8513 10.936 46.5C10.936 40.1487 20.3381 35 31.936 35C43.534 35 52.936 40.1487 52.936 46.5Z" fill="#F26922"/>
<path d="M161.409 59V32.6742H138.364V59H126.161V0.0270753H138.364V22.512H161.409V0.0270753H173.652V59H161.409ZM184.494 0.0270753H196.737V59H184.494V0.0270753ZM233.305 35.8749H220.582V59H208.539V0.0270753H237.466C241.6 0.107093 244.774 0.613871 246.988 1.54741C249.228 2.48095 251.122 3.85458 252.669 5.66831C253.949 7.16197 254.963 8.81567 255.71 10.6294C256.457 12.4431 256.83 14.5102 256.83 16.8308C256.83 19.6314 256.123 22.392 254.71 25.1126C253.296 27.8065 250.962 29.7136 247.708 30.8338C250.429 31.9274 252.349 33.4877 253.469 35.5149C254.616 37.5153 255.19 40.5826 255.19 44.7169V48.6777C255.19 51.3717 255.296 53.1987 255.51 54.1589C255.83 55.6793 256.577 56.7995 257.75 57.5197V59H244.187C243.814 57.693 243.547 56.6395 243.387 55.8393C243.067 54.1856 242.894 52.4919 242.867 50.7582L242.787 45.277C242.734 41.5162 242.04 39.009 240.706 37.7553C239.4 36.5017 236.932 35.8749 233.305 35.8749ZM240.786 25.1526C243.24 24.0323 244.467 21.8185 244.467 18.5111C244.467 14.937 243.28 12.5365 240.906 11.3095C239.573 10.6161 237.572 10.2693 234.905 10.2693H220.582V26.1128H234.545C237.319 26.1128 239.4 25.7927 240.786 25.1526ZM308.521 33.2344H279.875V48.3977H312.522V59H267.832V0.0270753H311.082V10.4694H279.875V22.9921H308.521V33.2344Z" fill="#F26922"/>
<path d="M137.558 95.2889C138.968 95.2889 140.316 95.0504 141.602 94.5734C142.909 94.0757 144.153 93.2772 145.335 92.1779L146.891 94.0445C145.709 95.1438 144.278 96.0148 142.598 96.6578C140.918 97.3007 139.134 97.6222 137.247 97.6222C135.297 97.6222 133.534 97.3733 131.958 96.8756C130.402 96.3778 129.065 95.6415 127.945 94.6667C126.846 93.692 125.995 92.489 125.394 91.058C124.792 89.6269 124.492 87.9781 124.492 86.1115C124.492 84.2449 124.782 82.596 125.363 81.165C125.964 79.7339 126.804 78.531 127.883 77.5562C128.982 76.5814 130.299 75.8452 131.834 75.3474C133.368 74.8496 135.069 74.6008 136.936 74.6008C138.823 74.6008 140.607 74.9222 142.286 75.5652C143.966 76.2081 145.397 77.0792 146.58 78.1784L145.024 80.045C143.842 78.9458 142.598 78.1577 141.291 77.6807C140.005 77.1829 138.657 76.934 137.247 76.934C136.127 76.934 135.079 77.1207 134.105 77.494C133.13 77.8466 132.29 78.3962 131.585 79.1428C130.879 79.8895 130.319 80.8435 129.905 82.005C129.511 83.1457 129.314 84.5145 129.314 86.1115C129.314 87.7085 129.511 89.0877 129.905 90.2491C130.319 91.3898 130.89 92.3335 131.616 93.0801C132.362 93.8268 133.233 94.3868 134.229 94.7601C135.245 95.1127 136.355 95.2889 137.558 95.2889ZM160.572 76.7785C159.514 76.7785 158.519 76.9651 157.585 77.3384C156.673 77.7118 155.874 78.2821 155.19 79.0495C154.505 79.8169 153.956 80.7917 153.541 81.9738C153.147 83.1353 152.95 84.5145 152.95 86.1115C152.95 87.7085 153.147 89.098 153.541 90.2802C153.956 91.4417 154.505 92.4061 155.19 93.1735C155.874 93.9408 156.673 94.5112 157.585 94.8845C158.519 95.2578 159.514 95.4445 160.572 95.4445C161.63 95.4445 162.615 95.2578 163.527 94.8845C164.461 94.5112 165.27 93.9408 165.954 93.1735C166.638 92.4061 167.178 91.4417 167.572 90.2802C167.986 89.098 168.194 87.7085 168.194 86.1115C168.194 84.5145 167.986 83.1353 167.572 81.9738C167.178 80.7917 166.638 79.8169 165.954 79.0495C165.27 78.2821 164.461 77.7118 163.527 77.3384C162.615 76.9651 161.63 76.7785 160.572 76.7785ZM160.572 74.6008C162.439 74.6008 164.129 74.8496 165.643 75.3474C167.178 75.8452 168.484 76.5814 169.563 77.5562C170.662 78.531 171.512 79.7339 172.114 81.165C172.715 82.596 173.016 84.2449 173.016 86.1115C173.016 87.9781 172.715 89.6269 172.114 91.058C171.512 92.489 170.662 93.692 169.563 94.6667C168.484 95.6415 167.178 96.3778 165.643 96.8756C164.129 97.3733 162.439 97.6222 160.572 97.6222C158.705 97.6222 157.005 97.3733 155.47 96.8756C153.935 96.3778 152.618 95.6415 151.519 94.6667C150.44 93.692 149.6 92.489 148.999 91.058C148.418 89.6269 148.128 87.9781 148.128 86.1115C148.128 84.2449 148.418 82.596 148.999 81.165C149.6 79.7339 150.44 78.531 151.519 77.5562C152.618 76.5814 153.935 75.8452 155.47 75.3474C157.005 74.8496 158.705 74.6008 160.572 74.6008ZM187.961 75.223C189.516 75.223 190.906 75.3993 192.13 75.7518C193.374 76.0837 194.421 76.5814 195.272 77.2451C196.122 77.8881 196.775 78.6865 197.232 79.6406C197.688 80.5739 197.916 81.642 197.916 82.8449C197.916 84.5041 197.501 85.9041 196.672 87.0448C195.842 88.1855 194.65 89.0566 193.094 89.658L198.227 97H193.094L188.521 90.4669H187.961H181.272V97H176.761V75.223H187.961ZM181.272 77.5562V88.1336H187.961C189.599 88.1336 190.865 87.7085 191.756 86.8581C192.648 85.987 193.094 84.6493 193.094 82.8449C193.094 81.0405 192.648 79.7132 191.756 78.8628C190.865 77.9918 189.599 77.5562 187.961 77.5562H181.272ZM212.843 75.223C214.398 75.223 215.788 75.3993 217.012 75.7518C218.256 76.0837 219.303 76.5814 220.154 77.2451C221.004 77.8881 221.657 78.6865 222.114 79.6406C222.57 80.5739 222.798 81.642 222.798 82.8449C222.798 84.5041 222.383 85.9041 221.554 87.0448C220.724 88.1855 219.532 89.0566 217.976 89.658L223.109 97H217.976L213.403 90.4669H212.843H206.154V97H201.643V75.223H212.843ZM206.154 77.5562V88.1336H212.843C214.481 88.1336 215.746 87.7085 216.638 86.8581C217.53 85.987 217.976 84.6493 217.976 82.8449C217.976 81.0405 217.53 79.7132 216.638 78.8628C215.746 77.9918 214.481 77.5562 212.843 77.5562H206.154ZM231.036 77.5562V84.7115H242.391V87.0448H231.036V94.6667H245.502V97H226.525V75.223H245.502V77.5562H231.036ZM260.114 95.2889C261.525 95.2889 262.873 95.0504 264.159 94.5734C265.465 94.0757 266.71 93.2772 267.892 92.1779L269.447 94.0445C268.265 95.1438 266.834 96.0148 265.154 96.6578C263.474 97.3007 261.691 97.6222 259.803 97.6222C257.854 97.6222 256.091 97.3733 254.515 96.8756C252.959 96.3778 251.621 95.6415 250.501 94.6667C249.402 93.692 248.552 92.489 247.95 91.058C247.349 89.6269 247.048 87.9781 247.048 86.1115C247.048 84.2449 247.338 82.596 247.919 81.165C248.521 79.7339 249.361 78.531 250.439 77.5562C251.538 76.5814 252.855 75.8452 254.39 75.3474C255.925 74.8496 257.626 74.6008 259.492 74.6008C261.379 74.6008 263.163 74.9222 264.843 75.5652C266.523 76.2081 267.954 77.0792 269.136 78.1784L267.581 80.045C266.399 78.9458 265.154 78.1577 263.848 77.6807C262.562 77.1829 261.214 76.934 259.803 76.934C258.683 76.934 257.636 77.1207 256.661 77.494C255.686 77.8466 254.846 78.3962 254.141 79.1428C253.436 79.8895 252.876 80.8435 252.461 82.005C252.067 83.1457 251.87 84.5145 251.87 86.1115C251.87 87.7085 252.067 89.0877 252.461 90.2491C252.876 91.3898 253.446 92.3335 254.172 93.0801C254.919 93.8268 255.79 94.3868 256.786 94.7601C257.802 95.1127 258.911 95.2889 260.114 95.2889ZM291.692 77.5562H283.293V97H278.782V77.5562H270.382V75.223H291.692V77.5562ZM303.818 76.7785C302.76 76.7785 301.765 76.9651 300.831 77.3384C299.919 77.7118 299.12 78.2821 298.436 79.0495C297.751 79.8169 297.202 80.7917 296.787 81.9738C296.393 83.1353 296.196 84.5145 296.196 86.1115C296.196 87.7085 296.393 89.098 296.787 90.2802C297.202 91.4417 297.751 92.4061 298.436 93.1735C299.12 93.9408 299.919 94.5112 300.831 94.8845C301.765 95.2578 302.76 95.4445 303.818 95.4445C304.876 95.4445 305.861 95.2578 306.773 94.8845C307.707 94.5112 308.516 93.9408 309.2 93.1735C309.884 92.4061 310.424 91.4417 310.818 90.2802C311.232 89.098 311.44 87.7085 311.44 86.1115C311.44 84.5145 311.232 83.1353 310.818 81.9738C310.424 80.7917 309.884 79.8169 309.2 79.0495C308.516 78.2821 307.707 77.7118 306.773 77.3384C305.861 76.9651 304.876 76.7785 303.818 76.7785ZM303.818 74.6008C305.684 74.6008 307.375 74.8496 308.889 75.3474C310.424 75.8452 311.73 76.5814 312.809 77.5562C313.908 78.531 314.758 79.7339 315.36 81.165C315.961 82.596 316.262 84.2449 316.262 86.1115C316.262 87.9781 315.961 89.6269 315.36 91.058C314.758 92.489 313.908 93.692 312.809 94.6667C311.73 95.6415 310.424 96.3778 308.889 96.8756C307.375 97.3733 305.684 97.6222 303.818 97.6222C301.951 97.6222 300.251 97.3733 298.716 96.8756C297.181 96.3778 295.864 95.6415 294.765 94.6667C293.686 93.692 292.846 92.489 292.245 91.058C291.664 89.6269 291.374 87.9781 291.374 86.1115C291.374 84.2449 291.664 82.596 292.245 81.165C292.846 79.7339 293.686 78.531 294.765 77.5562C295.864 76.5814 297.181 75.8452 298.716 75.3474C300.251 74.8496 301.951 74.6008 303.818 74.6008Z" fill="#35BA96"/>
</svg>
